<svg t="1692002905495" class="icon" viewBox="0 0 1068 1024" version="1.1" xmlns="http://www.w3.org/2000/svg" p-id="5014" xmlns:xlink="http://www.w3.org/1999/xlink" width="208.59375" height="200"><path d="M540.485865 940.28382c99.022282-354.09526 96.149873-355.699589 167.729334-608.172674l17.212475 9.940249c9.351262 5.401975 17.005891 0.984575 17.005891-9.790804V211.856774c18.99482-66.524724 33.879919-117.929193 38.240178-133.385697h77.550642l128.825447 119.344519-84.607493 73.117858 63.975378 69.168571-421.652908 600.173004c-2.061453 3.388871-4.931664 2.615277-4.278944 0z m46.064031-763.221213c3.808634 0 6.918395 2.105408 6.918396 4.718487v61.705143c0 2.606486-3.109762 4.725079-6.916198 4.725079h-104.162729c-3.828413 0-6.929384-2.109803-6.929384-4.725079V181.781094c0-2.604288 3.098773-4.718486 6.929384-4.718487h104.162729z" fill="#2c2c2c" p-id="5015"></path><path d="M715.116013 108.753342l-114.588672 66.151113c1.329615 2.021894 2.138373 4.351469 2.138373 6.892023v61.70734c0 3.202065-1.241707 6.087661-3.287777 8.417235l115.738076 66.814822c7.889784 4.555856 14.362044 0.828537 14.362044-8.272186V117.034318c0-9.109514-6.470062-12.825844-14.362044-8.280976zM466.247174 243.499423V181.79428c0-2.527368 0.808758-4.856942 2.12299-6.878837l-114.588672-66.162101c-7.885388-4.544867-14.351055-0.826339-14.351056 8.280976v193.427173c0 9.098525 6.456876 12.834635 14.351056 8.263395l115.731482-66.821415c-2.035081-2.329574-3.267997-5.208576-3.267997-8.410641z" fill="#2c2c2c" p-id="5016"></path><path d="M523.893144 940.28382h4.278944c-99.006898-354.09526-96.156467-355.699589-167.729333-608.172674l-17.214673 9.940249c-9.346867 5.401975-17.003693 0.984575-17.003693-9.790804V211.856774C307.225174 145.33205 292.346667 93.927581 287.973222 78.471077H210.431371L81.608122 197.815596l84.598702 73.117858-63.975378 69.168571z" fill="#2c2c2c" p-id="5017"></path><path d="M531.189546 345.780911m-31.275631 0a31.275631 31.275631 0 1 0 62.551262 0 31.275631 31.275631 0 1 0-62.551262 0Z" fill="#2c2c2c" p-id="5018"></path><path d="M531.189546 531.751249m-31.275631 0a31.275631 31.275631 0 1 0 62.551262 0 31.275631 31.275631 0 1 0-62.551262 0Z" fill="#2c2c2c" p-id="5019"></path><path d="M531.189546 717.721587m-31.273433 0a31.273433 31.273433 0 1 0 62.546866 0 31.273433 31.273433 0 1 0-62.546866 0Z" fill="#2c2c2c" p-id="5020"></path></svg>
