<svg width="16" height="16" viewBox="0 0 16 16" fill="none" xmlns="http://www.w3.org/2000/svg">
<path d="M11.0348 1.00006C11.836 1.00006 12.4841 1.10946 12.9765 1.32882C13.4688 1.54762 13.7146 1.82059 13.7146 2.14946C13.7146 2.55061 13.6135 3.00608 13.4135 3.51644C13.2126 4.02679 13.0212 4.44577 12.8391 4.77393C12.7659 4.8472 12.6753 4.85597 12.5659 4.80166C12.4565 4.74649 12.4015 4.64691 12.4015 4.50065C12.5112 4.24632 12.5659 3.88138 12.5659 3.40667C12.5659 2.8966 12.4292 2.47678 12.1556 2.14918C11.8824 1.82084 11.5081 1.65701 11.0348 1.65701C10.4143 1.65701 9.91371 1.8482 9.5308 2.23122C9.14815 2.6137 8.95671 3.15234 8.95671 3.84375C8.95671 4.42766 9.11115 4.98384 9.4214 5.51174C9.74148 6.05745 10.0882 6.58676 10.4604 7.09825C10.8516 7.64 11.2078 8.20637 11.5268 8.79367C11.8551 9.3954 12.0192 10.0789 12.0192 10.8444C12.0192 12.1565 11.4904 13.1772 10.4334 13.906C9.3758 14.6361 7.99032 15 6.27744 15C5.0378 15 4.06258 14.7997 3.35173 14.3985C2.64032 13.9979 2.28534 13.5611 2.28534 13.0864C2.28534 12.9413 2.33974 12.7401 2.44917 12.4847C2.55857 12.2301 2.70386 11.9571 2.88704 11.664C3.07523 11.3641 3.27597 11.0722 3.48877 10.789C3.70728 10.4976 3.94379 10.2611 4.19933 10.0789C4.30873 10.0056 4.40902 10.0234 4.50045 10.1329C4.59107 10.2424 4.60046 10.3519 4.52809 10.4611C4.30901 10.6795 4.14544 10.9078 4.03551 11.1449C3.92611 11.3816 3.8714 11.7013 3.8714 12.1016C3.8714 12.7577 4.09019 13.2963 4.52809 13.7142C4.96543 14.1343 5.53013 14.3436 6.22301 14.3436C7.17062 14.3436 7.90882 14.0794 8.43787 13.5507C8.9661 13.0228 9.23076 12.3749 9.23076 11.6091C9.23076 10.9168 9.0755 10.2696 8.76581 9.66812C8.45685 9.06865 8.11932 8.48474 7.75438 7.91781C7.39241 7.35823 7.05477 6.78338 6.74239 6.19466C6.43516 5.62348 6.2754 4.98413 6.27772 4.33544C6.27772 3.38828 6.67831 2.59503 7.48087 1.95734C8.28177 1.32081 9.4667 1.00006 11.0348 1.00006Z" fill="#B3D107"/>
</svg>
